<svg aria-hidden="true" style="position: absolute; width: 0; height: 0; overflow: hidden;" version="1.1" xmlns="http://www.w3.org/2000/svg" xmlns:xlink="http://www.w3.org/1999/xlink">
<defs>

<symbol id="icon-arrow-left" viewBox="0 0 32 32">
<path stroke-linejoin="round" stroke-linecap="round" stroke-miterlimit="4" stroke-width="1.3333" d="M24.667 16h-16.667M8 16l8-8M8 16l8 8"></path>
</symbol>

<symbol id="icon-arrow-right" viewBox="0 0 32 32">
<path stroke-linejoin="round" stroke-linecap="round" stroke-miterlimit="4" stroke-width="1.3333" d="M8 16h16.667M24.667 16l-8-8M24.667 16l-8 8"></path>
</symbol>

<symbol id="icon-coffee-cup" viewBox="0 0 32 32">
<path stroke-linejoin="round" stroke-linecap="round" stroke-miterlimit="4" stroke-width="1.561" d="M22.504 15.167v4.735c0 4.31-3.494 7.805-7.805 7.805h-2.602c-4.311 0-7.805-3.494-7.805-7.805v-4.735c0-0.259 0.21-0.468 0.468-0.468h17.275c0.259 0 0.468 0.21 0.468 0.468z"></path>
<path stroke-linejoin="round" stroke-linecap="round" stroke-miterlimit="4" stroke-width="1.561" d="M16 12.098c0-1.301 0.929-2.602 2.787-2.602 0.406 0 0.892 0 1.375 0 1.293 0 2.341-1.048 2.341-2.341v-2.211"></path>
<path stroke-linejoin="round" stroke-linecap="round" stroke-miterlimit="4" stroke-width="1.561" d="M10.797 12.098v-2.211c0-1.293 1.048-2.341 2.341-2.341h2.602c0.862 0 1.561-0.699 1.561-1.561v-1.691"></path>
<path stroke-linejoin="round" stroke-linecap="round" stroke-miterlimit="4" stroke-width="1.561" d="M21.203 14.699h3.252c1.796 0 3.252 1.456 3.252 3.252s-1.456 3.252-3.252 3.252h-1.951"></path>
</symbol>

<symbol id="icon-apple" viewBox="0 0 32 32">
<path d="M23.739 16.561c-0.033-3.554 2.985-5.283 3.123-5.364-1.709-2.429-4.358-2.761-5.289-2.788-2.225-0.228-4.383 1.298-5.516 1.298-1.156 0-2.901-1.276-4.782-1.238-2.42 0.036-4.685 1.403-5.926 3.524-2.563 4.326-0.651 10.683 1.804 14.18 1.228 1.713 2.664 3.625 4.542 3.557 1.838-0.074 2.524-1.142 4.742-1.142 2.197 0 2.842 1.142 4.758 1.099 1.972-0.031 3.214-1.72 4.4-3.448 1.419-1.963 1.989-3.896 2.012-3.995-0.046-0.015-3.831-1.424-3.868-5.683z"></path>
<path d="M20.12 6.109c0.988-1.205 1.665-2.845 1.477-4.509-1.431 0.062-3.22 0.965-4.25 2.144-0.912 1.039-1.726 2.741-1.516 4.342 1.607 0.117 3.257-0.791 4.289-1.977z"></path>
</symbol>

<symbol id="icon-clock" viewBox="0 0 32 32">
<path fill="none"  stroke-linejoin="round" stroke-linecap="round" stroke-miterlimit="4" stroke-width="2.4" d="M16 8v8h8"></path>
<path fill="none"  stroke-linejoin="round" stroke-linecap="round" stroke-miterlimit="4" stroke-width="2.4" d="M16 29.333c7.364 0 13.333-5.969 13.333-13.333s-5.97-13.333-13.333-13.333c-7.364 0-13.333 5.97-13.333 13.333s5.97 13.333 13.333 13.333z"></path>
</symbol>

<symbol id="icon-facebook" viewBox="0 0 32 32">
<path fill="none"  stroke-linejoin="round" stroke-linecap="round" stroke-miterlimit="4" stroke-width="1.3333" d="M22.667 2.667h-4c-1.768 0-3.464 0.702-4.714 1.953s-1.953 2.946-1.953 4.714v4h-4v5.333h4v10.667h5.333v-10.667h4l1.333-5.333h-5.333v-4c0-0.354 0.141-0.693 0.391-0.943s0.589-0.391 0.943-0.391h4v-5.333z"></path>
</symbol>

<symbol id="icon-google" viewBox="0 0 32 32">
<path d="M3.338 2.847c-0.322 0.329-0.509 0.841-0.509 1.504v23.649c0 0.663 0.186 1.175 0.509 1.504l0.079 0.072 13.592-13.247v-0.313l-13.592-13.247-0.079 0.078z"></path>
<path d="M23.18 20.747l-4.526-4.418v-0.313l4.531-4.418 0.101 0.057 5.366 2.977c1.531 0.845 1.531 2.235 0 3.085l-5.473 3.029z"></path>
<path d="M22.465 21.512l-4.632-4.517-13.671 13.331c0.509 0.521 1.338 0.584 2.281 0.063l16.022-8.877z"></path>
<path d="M22.465 10.833l-16.022-8.877c-0.943-0.516-1.773-0.453-2.281 0.068l13.671 13.325 4.632-4.517z"></path>
</symbol>

<symbol id="icon-instagram" viewBox="0 0 32 32">
<path fill="none"  stroke-linejoin="round" stroke-linecap="round" stroke-miterlimit="4" stroke-width="1.3333" d="M16 21.333c2.945 0 5.333-2.388 5.333-5.333s-2.388-5.333-5.333-5.333c-2.946 0-5.333 2.388-5.333 5.333s2.388 5.333 5.333 5.333z"></path>
<path fill="none"  stroke-linejoin="miter" stroke-linecap="butt" stroke-miterlimit="4" stroke-width="1.3333" d="M4 21.333v-10.667c0-3.682 2.985-6.667 6.667-6.667h10.667c3.682 0 6.667 2.985 6.667 6.667v10.667c0 3.682-2.985 6.667-6.667 6.667h-10.667c-3.682 0-6.667-2.985-6.667-6.667z"></path>
<path fill="none"  stroke-linejoin="round" stroke-linecap="round" stroke-miterlimit="4" stroke-width="1.3333" d="M23.333 8.68l0.013-0.015"></path>
</symbol>

<symbol id="icon-phone" viewBox="0 0 32 32">
<path fill="none"  stroke-linejoin="round" stroke-linecap="round" stroke-miterlimit="4" stroke-width="2.4" d="M24.157 19.603l-5.491 1.064c-3.709-1.861-6-4-7.333-7.333l1.027-5.507-1.941-5.16h-4.452c-1.804 0-3.224 1.493-2.925 3.272 0.636 3.797 2.354 10.124 6.958 14.728 4.838 4.838 11.706 7.064 15.821 8.020 1.858 0.431 3.513-1.021 3.513-2.928v-4.183l-5.176-1.972z"></path>
</symbol>

<symbol id="icon-pin-alt" viewBox="0 0 32 32">
<path fill="none" stroke-linejoin="miter" stroke-linecap="butt" stroke-miterlimit="4" stroke-width="2.4" d="M26.667 13.333c0 5.891-10.667 16-10.667 16s-10.667-10.109-10.667-16c0-5.891 4.776-10.667 10.667-10.667s10.667 4.776 10.667 10.667z"></path>
<path stroke-linejoin="round" stroke-linecap="round" stroke-miterlimit="4" stroke-width="2.4" d="M16 14.667c0.736 0 1.333-0.597 1.333-1.333s-0.597-1.333-1.333-1.333c-0.736 0-1.333 0.597-1.333 1.333s0.597 1.333 1.333 1.333z"></path>
</symbol>

<symbol id="icon-twitter" viewBox="0 0 32 32">
<path fill="none"  stroke-linejoin="round" stroke-linecap="round" stroke-miterlimit="4" stroke-width="1.3333" d="M30.667 4.013c0 0-2.691 1.589-4.187 2.040-0.803-0.923-1.87-1.578-3.057-1.875s-2.437-0.222-3.58 0.214c-1.143 0.436-2.125 1.213-2.812 2.226s-1.047 2.211-1.031 3.435v1.333c-2.343 0.061-4.665-0.459-6.759-1.513s-3.894-2.609-5.241-4.527c0 0-5.333 12 6.667 17.333-2.746 1.864-6.017 2.799-9.333 2.667 12 6.667 26.667 0 26.667-15.333-0.001-0.371-0.037-0.742-0.107-1.107 1.361-1.342 2.773-4.893 2.773-4.893z"></path>
</symbol>

<symbol id="icon-menu-close" viewBox="0 0 32 32">
<path stroke-linejoin="round" stroke-linecap="round" stroke-miterlimit="4" stroke-width="3.4286" d="M3.070 3.070l25.86 25.86"></path>
<path stroke-linejoin="round" stroke-linecap="round" stroke-miterlimit="4" stroke-width="3.4286" d="M3.070 28.93l25.86-25.86"></path>
</symbol>

<symbol id="icon-menu-open" viewBox="0 0 32 32">
<path stroke-linejoin="round" stroke-linecap="round" stroke-miterlimit="4" stroke-width="2.6667" d="M1.778 8.889h28.444"></path>
<path stroke-linejoin="round" stroke-linecap="round" stroke-miterlimit="4" stroke-width="2.6667" d="M1.778 23.111h28.444"></path>
</symbol>

<symbol id="icon-load" viewBox="0 0 24 24">
  <path d="M21.8883 13.5C21.1645 18.3113 17.013 22 12 22C6.47715 22 2 17.5228 2 12C2 6.47715 6.47715 2 12 2C16.1006 2 19.6248 4.46819 21.1679 8" stroke-linecap="round" stroke-linejoin="round" fill="none"/>
  <path d="M17 8H21.4C21.7314 8 22 7.73137 22 7.4V3" stroke-linecap="round" stroke-linejoin="round" fill="none"/>
</symbol>

</defs>
</svg>
